<svg width="156" height="27" viewBox="0 0 156 27" fill="none" xmlns="http://www.w3.org/2000/svg">
<path d="M7.5 24.5L1 17.5L7.5 15L12 20L17.5 15L12 7.5V12.5L1 10L5.5 4.5" stroke="white" stroke-width="2" stroke-linecap="round" stroke-linejoin="round"/>
<path d="M28.31 5.6H30.51V19.086H38.848V21H28.31V5.6ZM45.9081 21.132C44.7494 21.132 43.7081 20.8753 42.7841 20.362C41.8601 19.8487 41.1341 19.1447 40.6061 18.25C40.0928 17.3407 39.8361 16.314 39.8361 15.17C39.8361 14.026 40.0928 13.0067 40.6061 12.112C41.1341 11.2027 41.8601 10.4987 42.7841 10C43.7081 9.48667 44.7494 9.23 45.9081 9.23C47.0668 9.23 48.1008 9.48667 49.0101 10C49.9341 10.4987 50.6528 11.2027 51.1661 12.112C51.6941 13.0067 51.9581 14.026 51.9581 15.17C51.9581 16.314 51.6941 17.3407 51.1661 18.25C50.6528 19.1447 49.9341 19.8487 49.0101 20.362C48.1008 20.8753 47.0668 21.132 45.9081 21.132ZM45.9081 19.284C46.6561 19.284 47.3234 19.1153 47.9101 18.778C48.5114 18.426 48.9808 17.942 49.3181 17.326C49.6554 16.6953 49.8241 15.9767 49.8241 15.17C49.8241 14.3633 49.6554 13.652 49.3181 13.036C48.9808 12.4053 48.5114 11.9213 47.9101 11.584C47.3234 11.2467 46.6561 11.078 45.9081 11.078C45.1601 11.078 44.4854 11.2467 43.8841 11.584C43.2974 11.9213 42.8281 12.4053 42.4761 13.036C42.1388 13.652 41.9701 14.3633 41.9701 15.17C41.9701 15.9767 42.1388 16.6953 42.4761 17.326C42.8281 17.942 43.2974 18.426 43.8841 18.778C44.4854 19.1153 45.1601 19.284 45.9081 19.284ZM61.105 9.23C62.5863 9.23 63.7596 9.66267 64.625 10.528C65.505 11.3787 65.945 12.6327 65.945 14.29V21H63.833V14.532C63.833 13.4027 63.5616 12.552 63.019 11.98C62.4763 11.408 61.699 11.122 60.687 11.122C59.543 11.122 58.641 11.4593 57.981 12.134C57.321 12.794 56.991 13.7473 56.991 14.994V21H54.879V9.34H56.903V11.1C57.3283 10.4987 57.9003 10.0367 58.619 9.714C59.3523 9.39133 60.181 9.23 61.105 9.23ZM80.918 4.676V21H78.894V19.152C78.4247 19.7973 77.8307 20.2887 77.112 20.626C76.3933 20.9633 75.6013 21.132 74.736 21.132C73.6067 21.132 72.5947 20.8827 71.7 20.384C70.8053 19.8853 70.1013 19.1887 69.588 18.294C69.0893 17.3847 68.84 16.3433 68.84 15.17C68.84 13.9967 69.0893 12.9627 69.588 12.068C70.1013 11.1733 70.8053 10.4767 71.7 9.978C72.5947 9.47933 73.6067 9.23 74.736 9.23C75.572 9.23 76.342 9.39133 77.046 9.714C77.75 10.022 78.3367 10.484 78.806 11.1V4.676H80.918ZM74.912 19.284C75.6453 19.284 76.3127 19.1153 76.914 18.778C77.5153 18.426 77.9847 17.942 78.322 17.326C78.6593 16.6953 78.828 15.9767 78.828 15.17C78.828 14.3633 78.6593 13.652 78.322 13.036C77.9847 12.4053 77.5153 11.9213 76.914 11.584C76.3127 11.2467 75.6453 11.078 74.912 11.078C74.164 11.078 73.4893 11.2467 72.888 11.584C72.3013 11.9213 71.832 12.4053 71.48 13.036C71.1427 13.652 70.974 14.3633 70.974 15.17C70.974 15.9767 71.1427 16.6953 71.48 17.326C71.832 17.942 72.3013 18.426 72.888 18.778C73.4893 19.1153 74.164 19.284 74.912 19.284ZM89.9081 21.132C88.7494 21.132 87.7081 20.8753 86.7841 20.362C85.8601 19.8487 85.1341 19.1447 84.6061 18.25C84.0928 17.3407 83.8361 16.314 83.8361 15.17C83.8361 14.026 84.0928 13.0067 84.6061 12.112C85.1341 11.2027 85.8601 10.4987 86.7841 10C87.7081 9.48667 88.7494 9.23 89.9081 9.23C91.0668 9.23 92.1008 9.48667 93.0101 10C93.9341 10.4987 94.6528 11.2027 95.1661 12.112C95.6941 13.0067 95.9581 14.026 95.9581 15.17C95.9581 16.314 95.6941 17.3407 95.1661 18.25C94.6528 19.1447 93.9341 19.8487 93.0101 20.362C92.1008 20.8753 91.0668 21.132 89.9081 21.132ZM89.9081 19.284C90.6561 19.284 91.3234 19.1153 91.9101 18.778C92.5114 18.426 92.9808 17.942 93.3181 17.326C93.6554 16.6953 93.8241 15.9767 93.8241 15.17C93.8241 14.3633 93.6554 13.652 93.3181 13.036C92.9808 12.4053 92.5114 11.9213 91.9101 11.584C91.3234 11.2467 90.6561 11.078 89.9081 11.078C89.1601 11.078 88.4854 11.2467 87.8841 11.584C87.2974 11.9213 86.8281 12.4053 86.4761 13.036C86.1388 13.652 85.9701 14.3633 85.9701 15.17C85.9701 15.9767 86.1388 16.6953 86.4761 17.326C86.8281 17.942 87.2974 18.426 87.8841 18.778C88.4854 19.1153 89.1601 19.284 89.9081 19.284ZM105.105 9.23C106.586 9.23 107.76 9.66267 108.625 10.528C109.505 11.3787 109.945 12.6327 109.945 14.29V21H107.833V14.532C107.833 13.4027 107.562 12.552 107.019 11.98C106.476 11.408 105.699 11.122 104.687 11.122C103.543 11.122 102.641 11.4593 101.981 12.134C101.321 12.794 100.991 13.7473 100.991 14.994V21H98.879V9.34H100.903V11.1C101.328 10.4987 101.9 10.0367 102.619 9.714C103.352 9.39133 104.181 9.23 105.105 9.23ZM121.048 21.176C119.508 21.176 118.114 20.8387 116.868 20.164C115.636 19.4747 114.668 18.536 113.964 17.348C113.26 16.1453 112.908 14.796 112.908 13.3C112.908 11.804 113.26 10.462 113.964 9.274C114.668 8.07133 115.643 7.13267 116.89 6.458C118.136 5.76867 119.53 5.424 121.07 5.424C122.272 5.424 123.372 5.62933 124.37 6.04C125.367 6.436 126.218 7.03 126.922 7.822L125.492 9.208C124.333 7.99067 122.888 7.382 121.158 7.382C120.014 7.382 118.98 7.63867 118.056 8.152C117.132 8.66533 116.406 9.37667 115.878 10.286C115.364 11.1807 115.108 12.1853 115.108 13.3C115.108 14.4147 115.364 15.4267 115.878 16.336C116.406 17.2307 117.132 17.9347 118.056 18.448C118.98 18.9613 120.014 19.218 121.158 19.218C122.874 19.218 124.318 18.602 125.492 17.37L126.922 18.756C126.218 19.548 125.36 20.1493 124.348 20.56C123.35 20.9707 122.25 21.176 121.048 21.176ZM129.752 9.34H131.864V21H129.752V9.34ZM130.808 7.096C130.397 7.096 130.053 6.964 129.774 6.7C129.51 6.436 129.378 6.11333 129.378 5.732C129.378 5.35067 129.51 5.028 129.774 4.764C130.053 4.48533 130.397 4.346 130.808 4.346C131.219 4.346 131.556 4.478 131.82 4.742C132.099 4.99133 132.238 5.30667 132.238 5.688C132.238 6.084 132.099 6.42133 131.82 6.7C131.556 6.964 131.219 7.096 130.808 7.096ZM142.453 20.318C142.145 20.582 141.763 20.7873 141.309 20.934C140.854 21.066 140.385 21.132 139.901 21.132C138.727 21.132 137.818 20.8167 137.173 20.186C136.527 19.5553 136.205 18.6533 136.205 17.48V11.078H134.225V9.34H136.205V6.788H138.317V9.34H141.661V11.078H138.317V17.392C138.317 18.0227 138.471 18.5067 138.779 18.844C139.101 19.1813 139.556 19.35 140.143 19.35C140.788 19.35 141.338 19.1667 141.793 18.8L142.453 20.318ZM155.109 9.34L149.455 22.166C148.956 23.354 148.37 24.19 147.695 24.674C147.035 25.158 146.236 25.4 145.297 25.4C144.725 25.4 144.168 25.3047 143.625 25.114C143.097 24.938 142.657 24.674 142.305 24.322L143.207 22.738C143.808 23.31 144.505 23.596 145.297 23.596C145.81 23.596 146.236 23.4567 146.573 23.178C146.925 22.914 147.24 22.452 147.519 21.792L147.893 20.978L142.745 9.34H144.945L149.015 18.668L153.041 9.34H155.109Z" fill="white"/>
</svg>
